<svg width="273" height="273" viewBox="0 0 273 273" fill="none" xmlns="http://www.w3.org/2000/svg">
<path opacity="0.2" d="M136.166 229.786C136.166 229.786 29.7852 170.212 29.7852 97.873C29.7873 85.0874 34.2176 72.6972 42.3227 62.8089C50.4278 52.9205 61.7074 46.1445 74.2439 43.6329C86.7803 41.1212 99.7998 43.0289 111.089 49.0316C122.378 55.0343 131.239 64.7616 136.166 76.5595L136.166 76.5596C141.094 64.7617 149.955 55.0344 161.244 49.0317C172.533 43.0289 185.552 41.1212 198.089 43.6329C210.625 46.1445 221.905 52.9205 230.01 62.8089C238.115 72.6972 242.545 85.0874 242.548 97.873C242.548 170.212 136.166 229.786 136.166 229.786Z" fill="#1050EA"/>
<path d="M34.043 136.172H76.5955L93.6165 110.641L127.658 161.704L144.679 136.172H170.211" stroke="#1E1E1E" stroke-width="17.021" stroke-linecap="round" stroke-linejoin="round"/>
<path d="M29.9067 102.121C29.8262 100.71 29.7857 99.2943 29.7852 97.873C29.7873 85.0874 34.2176 72.6972 42.3227 62.8089C50.4278 52.9205 61.7074 46.1445 74.2439 43.6329C86.7803 41.1212 99.7998 43.0289 111.089 49.0316C122.378 55.0343 131.239 64.7616 136.166 76.5595L136.166 76.5596C141.094 64.7617 149.955 55.0344 161.244 49.0317C172.533 43.0289 185.552 41.1212 198.089 43.6329C210.625 46.1445 221.905 52.9205 230.01 62.8089C238.115 72.6972 242.545 85.0874 242.548 97.873C242.548 170.212 136.166 229.786 136.166 229.786C136.166 229.786 93.6728 205.989 62.399 170.213" stroke="#1050EA" stroke-width="17.021" stroke-linecap="round" stroke-linejoin="round"/>
</svg>
